<svg xmlns="http://www.w3.org/2000/svg" width="24" height="24" viewBox="0 0 24 24" fill="none">
  <path d="M22 6.5H16" stroke="url(#paint0_linear_6_973)" stroke-width="1.5" stroke-miterlimit="10" stroke-linecap="round" stroke-linejoin="round"/>
  <path d="M6 6.5H2" stroke="url(#paint1_linear_6_973)" stroke-width="1.5" stroke-miterlimit="10" stroke-linecap="round" stroke-linejoin="round"/>
  <path d="M10 10C11.933 10 13.5 8.433 13.5 6.5C13.5 4.567 11.933 3 10 3C8.067 3 6.5 4.567 6.5 6.5C6.5 8.433 8.067 10 10 10Z" stroke="url(#paint2_linear_6_973)" stroke-width="1.5" stroke-miterlimit="10" stroke-linecap="round" stroke-linejoin="round"/>
  <path d="M22 17.5H18" stroke="url(#paint3_linear_6_973)" stroke-width="1.5" stroke-miterlimit="10" stroke-linecap="round" stroke-linejoin="round"/>
  <path d="M8 17.5H2" stroke="url(#paint4_linear_6_973)" stroke-width="1.5" stroke-miterlimit="10" stroke-linecap="round" stroke-linejoin="round"/>
  <path d="M14 21C15.933 21 17.5 19.433 17.5 17.5C17.5 15.567 15.933 14 14 14C12.067 14 10.5 15.567 10.5 17.5C10.5 19.433 12.067 21 14 21Z" stroke="url(#paint5_linear_6_973)" stroke-width="1.5" stroke-miterlimit="10" stroke-linecap="round" stroke-linejoin="round"/>
  <defs>
    <linearGradient id="paint0_linear_6_973" x1="19" y1="6.5" x2="19" y2="7.5" gradientUnits="userSpaceOnUse">
      <stop offset="0.00480769" stop-color="#FFF9D0"/>
      <stop offset="1" stop-color="#B8B28C"/>
    </linearGradient>
    <linearGradient id="paint1_linear_6_973" x1="4" y1="6.5" x2="4" y2="7.5" gradientUnits="userSpaceOnUse">
      <stop offset="0.00480769" stop-color="#FFF9D0"/>
      <stop offset="1" stop-color="#B8B28C"/>
    </linearGradient>
    <linearGradient id="paint2_linear_6_973" x1="10" y1="3" x2="10" y2="10" gradientUnits="userSpaceOnUse">
      <stop offset="0.00480769" stop-color="#FFF9D0"/>
      <stop offset="1" stop-color="#B8B28C"/>
    </linearGradient>
    <linearGradient id="paint3_linear_6_973" x1="20" y1="17.5" x2="20" y2="18.5" gradientUnits="userSpaceOnUse">
      <stop offset="0.00480769" stop-color="#FFF9D0"/>
      <stop offset="1" stop-color="#B8B28C"/>
    </linearGradient>
    <linearGradient id="paint4_linear_6_973" x1="5" y1="17.5" x2="5" y2="18.5" gradientUnits="userSpaceOnUse">
      <stop offset="0.00480769" stop-color="#FFF9D0"/>
      <stop offset="1" stop-color="#B8B28C"/>
    </linearGradient>
    <linearGradient id="paint5_linear_6_973" x1="14" y1="14" x2="14" y2="21" gradientUnits="userSpaceOnUse">
      <stop offset="0.00480769" stop-color="#FFF9D0"/>
      <stop offset="1" stop-color="#B8B28C"/>
    </linearGradient>
  </defs>
</svg>
